<?xml version="1.0" encoding="utf-8"?>
<!-- Generator: Adobe Illustrator 18.1.1, SVG Export Plug-In . SVG Version: 6.00 Build 0)  -->
<svg version="1.1" id="Layer_1" xmlns="http://www.w3.org/2000/svg" xmlns:xlink="http://www.w3.org/1999/xlink" x="0px" y="0px"
	 viewBox="450 650 1100 750" style="enable-background:new 450 650 1100 750;" xml:space="preserve">
<style type="text/css">
	.st0{fill:#000000;}
</style>
<g>
	<g>
		<path class="st0" d="M803.54,945.18c0.57,1.51,0.95,2.77,1.51,3.94c10.97,22.64,22.04,45.23,32.86,67.94
			c2.05,4.3,4.58,6.24,9.52,6.16c8.72-0.14,11.79,3.52,11.49,12.47c-1.06,31.71-28.04,60.72-59.55,65.32
			c-38.07,5.57-74.07-20.88-79.86-59.27c-0.42-2.78-0.51-5.65-0.45-8.47c0.14-6.68,3.54-10.37,10.3-10.04
			c5.58,0.28,8.29-2.01,10.59-6.84c11.44-24.07,23.17-48.02,34.92-71.94c1.55-3.17,0.99-4.41-2.25-5.95
			c-6.53-3.11-13.55-5.98-18.87-10.65c-8.79-7.72-9.59-20.82-3.46-31.19c6.02-10.18,18.05-15.38,29.06-12.51
			c1.45,0.38,2.97,0.68,4.27,1.37c16.54,8.82,32.31,6.7,46.96-4.03c19.09-13.98,40.14-22.9,63.52-26.32
			c3.28-0.48,3.96-2.42,3.94-5.24c-0.04-6.67-0.16-13.34,0.06-20c0.41-12.12,8.31-22.15,19.44-25.03
			c11.78-3.05,23.86,1.55,29.55,12.2c2.26,4.23,3.19,9.43,3.68,14.3c0.62,6.1,0.23,12.32,0.13,18.48c-0.05,3.17,1.02,4.89,4.41,5.37
			c23.6,3.34,44.75,12.66,63.95,26.61c1.21,0.88,2.56,1.56,3.88,2.27c0.56,0.3,1.21,0.42,2.56,0.87c0.13-2.42,0.33-4.47,0.33-6.52
			c0.02-49.66-0.03-99.33,0.05-148.99c0.02-13.01,4.38-24.2,16.55-30.29c5.14-2.57,11.42-3.99,17.19-4.01
			c76.33-0.26,152.65-0.18,228.98-0.17c20.7,0,34.03,13.3,34.08,34.16c0.07,30.66,0.02,61.33,0.02,91.99
			c0,22.16,0.09,44.33-0.04,66.49c-0.09,16.12-9.14,28.32-23.92,32.37c-2.68,0.74-5.59,0.88-8.4,0.88
			c-21.83,0.07-43.66,0.14-65.49-0.04c-4.46-0.04-7.97,1.32-11.41,4c-17.98,14.05-36.07,27.96-54.12,41.91
			c-0.79,0.61-1.61,1.19-2.44,1.74c-6.8,4.48-12.45,2.44-14.22-5.47c-2.66-11.87-5.25-23.76-7.36-35.73
			c-0.89-5.04-3.18-6.64-8.04-6.45c-7.49,0.3-15-0.07-22.49,0.19c-1.94,0.07-4.68,0.84-5.63,2.25c-5.24,7.81-12.73,12.1-21.43,14.61
			c-4.56,1.32-5.55,3.12-3.24,7.75c11.89,23.86,23.49,47.86,35,71.9c1.92,4.01,4.32,5.67,8.83,5.58
			c8.52-0.18,11.48,3.02,11.48,11.35c0,31.97-27.37,61.8-59.72,66.5c-38.11,5.53-75.3-21.54-80-62.64
			c-1.28-11.2,1.75-14.65,13.09-15.47c2.22-0.16,5.37-1.74,6.28-3.56c11.89-23.86,23.46-47.87,35.08-71.86
			c0.34-0.69,0.34-1.55,0.62-2.93c-4.85-0.49-9.41-0.86-13.95-1.41c-15.19-1.84-28.65-8.08-41.79-15.63
			c-10.36-5.95-21.26-11-32.09-16.08c-5.28-2.47-6.54-1.43-6.54,4.36c-0.02,77.49,0,154.99-0.06,232.48c0,3.31,0.86,5.66,3.9,7.39
			c2.42,1.38,4.89,3.13,6.54,5.32c3.59,4.78,6.88,4.02,11.28,1.03c15.31-10.38,30.81-20.48,46.29-30.59
			c10.43-6.82,21.67-8.53,33.39-4.04c14.59,5.59,22.94,16.56,24.24,31.98c1.13,13.4-4.21,24.91-15.41,32.32
			c-44.74,29.59-88.77,60.34-135.56,86.7c-14.39,8.1-30.03,9.28-46.03,4.95c-9.97-2.7-20-5.2-29.94-7.98
			c-9.34-2.61-18.03-1.84-26.29,3.63c-3.48,2.31-4.78,4.44-1.75,7.91c0.54,0.62,0.95,1.37,1.4,2.07c4.11,6.44,3.42,9.96-2.86,14.26
			c-12.37,8.48-24.7,17-37.13,25.39c-7.39,4.98-10.62,4.18-15.66-3.18c-26.09-38.07-52.21-76.12-78.33-114.16
			c-4.57-6.65-3.9-11.14,2.59-15.62c12.21-8.41,24.42-16.83,36.7-25.14c7.47-5.05,10.69-4.37,15.68,2.94c3.98,5.84,3.94,5.77,9.93,2
			c18.19-11.43,36.1-23.36,54.72-34.06c19.82-11.39,41.34-12.97,63.43-7.6c6.8,1.65,13.63,3.23,20.36,5.12
			c4.23,1.19,5.76-0.01,5.71-4.42c-0.15-13.5-0.05-27-0.05-40.5c0-58.83,0-117.66,0-176.49c0-8.09-0.84-8.93-8.19-5.4
			c-12.43,5.98-24.69,12.34-36.8,18.95c-14.13,7.72-28.98,12.55-45.17,12.9c-0.83,0.02-1.67,0.06-2.48,0.22
			C804.96,944.3,804.55,944.64,803.54,945.18z M1156.68,948.16c14.61-11.22,28.57-21.21,41.64-32.23
			c9.22-7.78,18.58-11.86,31.07-11.19c19.6,1.06,39.3,0.38,58.96,0.23c11.27-0.09,17.65-5.87,17.67-16
			c0.07-53.98,0.06-107.96,0.01-161.93c-0.01-8.1-4.91-13.92-12.87-15.43c-2.75-0.52-5.63-0.58-8.44-0.58
			c-71.3-0.03-142.61-0.02-213.91-0.02c-3.67,0-7.34-0.11-10.99,0.05c-10.97,0.48-16.83,6.54-16.85,17.41
			c-0.04,19.16-0.01,38.32-0.01,57.48c0,32.99-0.01,65.97,0.02,98.96c0.01,5.72,1.35,7.01,6.87,5.77c4.52-1.02,9.04-2.4,13.28-4.25
			c16.02-6.98,30.5-1.64,37.51,14.34c1.35,3.08,3.14,4.35,6.4,4.3c8-0.11,15.99-0.03,23.99-0.03c16.69,0,16.65,0.01,19.95,16.31
			C1152.69,929.92,1154.61,938.47,1156.68,948.16z M850.1,1146.99c-11.96,0.35-23.25,2.64-33.3,8.7
			c-18.98,11.42-37.61,23.41-56.4,35.15c-3.18,1.99-1.81,4.11-0.31,6.3c15.37,22.39,30.77,44.76,46.04,67.22
			c2.14,3.14,3.94,3.81,7.24,1.54c12.4-8.55,25.81-10.75,40.44-6.48c11.51,3.36,23.13,6.44,34.85,8.92
			c10.97,2.32,21.55,0.38,31.24-5.54c17.35-10.59,34.89-20.87,51.99-31.86c26.5-17.02,52.69-34.51,78.99-51.84
			c5.48-3.61,8.63-8.79,9.1-15.35c0.6-8.4-2.65-15.17-9.98-19.3c-7.59-4.28-15.43-3.66-22.71,1.09
			c-16.89,11.02-33.65,22.23-50.55,33.22c-3.12,2.03-3.76,4.62-3.81,8.02c-0.29,23.77-19.89,41.12-43.27,36.74
			c-21.43-4.01-42.51-9.91-63.69-15.16c-5.02-1.24-7.58-5.56-6.48-9.69c1.19-4.46,5.63-7.11,10.52-6.09
			c4.57,0.95,9.1,2.06,13.64,3.14c16.37,3.91,32.7,7.99,49.11,11.69c8.16,1.84,16.93-2.48,20.85-9.56
			c7.02-12.67,0.99-26.84-13.45-30.5c-22.13-5.62-44.33-10.92-66.57-16.1C865.85,1149.43,857.93,1148.38,850.1,1146.99z
			 M804.03,927.81c15.42-0.38,28.79-4.13,41.23-11.04c6.26-3.48,12.28-7.37,18.52-10.88c18.76-10.59,38.85-16.7,60.48-16.77
			c22.72-0.07,43.54,6.86,63.24,17.85c10.15,5.67,20.21,11.76,30.97,16.03c20.83,8.26,41.56,5.28,61.59-3.61
			c5.67-2.52,7.35-7.98,4.93-13.39c-2.26-5.06-7.87-7.23-13.47-5.18c-0.94,0.34-1.82,0.83-2.74,1.22
			c-15.38,6.51-30.92,8.49-46.3,0.43c-7.8-4.08-14.98-9.33-22.72-13.55c-7.86-4.29-15.76-8.83-24.17-11.73
			c-22.7-7.81-46.24-9.29-70.01-6.94c-23.65,2.34-45.58,9.47-64.75,24.09c-3.55,2.71-7.59,4.84-11.57,6.92
			c-12.81,6.68-26.14,8.7-40.08,3.92c-3.78-1.3-7.5-2.75-11.23-4.18c-5.9-2.27-11.59-0.24-13.93,5.02
			c-2.48,5.58-0.58,10.95,5.38,13.63C780.76,924.76,792.76,927.38,804.03,927.81z M933.66,1148.57c0.17-3.13,0.41-5.4,0.41-7.67
			c0.02-74.83,0.02-149.65,0.02-224.48c0-10.53,0-10.53-10.62-10.51c-8.54,0.01-8.55,0.01-8.55,8.59c0,73.83,0,147.65,0,221.48
			c0,1.67-0.29,3.43,0.17,4.97c0.42,1.42,1.42,3.39,2.58,3.74C922.71,1146.21,927.9,1147.23,933.66,1148.57z M806.31,1293.55
			c-0.38-0.46-0.77-0.93-1.15-1.39c-0.58-1-1.09-2.04-1.74-2.99c-11.94-17.45-23.88-34.9-35.85-52.33
			c-10.55-15.37-21.17-30.7-31.66-46.12c-1.84-2.7-3.23-3.6-6.28-1.34c-6.55,4.86-13.32,9.42-20.18,13.84
			c-3.41,2.2-3.33,4.21-1.17,7.29c8.02,11.45,15.84,23.05,23.76,34.58c14.42,20.99,28.92,41.94,43.24,63.01
			c2.11,3.11,3.84,3.4,6.81,1.27c6.77-4.84,13.69-9.47,20.6-14.12C803.79,1294.53,805.1,1294.12,806.31,1293.55z M1059.97,1039.95
			c-15.65,0-31.3-0.02-46.94,0.01c-5.63,0.01-6.13,0.68-4.47,6.15c3.33,10.93,9.14,20.08,18.18,27.39
			c29.48,23.83,74.91,9.45,84.92-27.06c1.58-5.76,1.11-6.46-4.75-6.47C1091.27,1039.92,1075.62,1039.95,1059.97,1039.95z
			 M788.63,1085.07c24.7,0.02,45.22-15.42,51.86-39.03c1.53-5.44,1.1-6.07-4.59-6.08c-31.13-0.02-62.25-0.02-93.38,0
			c-6.4,0-6.88,0.73-5.01,7.02C744.21,1069.57,764.98,1085.05,788.63,1085.07z M755.47,1022.21c1.72,0.41,2.63,0.82,3.55,0.82
			c19.5,0.04,39,0.01,58.5,0.04c4.57,0.01,4.45-2.16,2.84-5.43c-9.8-19.87-19.55-39.78-29.35-59.66c-0.53-1.08-1.41-1.99-2.64-3.68
			C777.22,977.34,766.44,999.56,755.47,1022.21z M1060.63,954.22c-1.2,1.55-1.8,2.12-2.14,2.82c-9.92,20.17-19.87,40.32-29.69,60.54
			c-2.18,4.5-1.43,5.47,3.74,5.49c18.48,0.04,36.97,0.03,55.45,0c1.58,0,3.15-0.23,5.77-0.43
			C1082.59,999.57,1071.83,977.36,1060.63,954.22z M914.97,838.99c0.27,15.94-2.88,13.92,14.45,14.04c3.44,0.02,4.73-1.64,4.68-4.92
			c-0.09-6.15,0.11-12.31-0.1-18.46c-0.19-5.64-4.3-9.39-9.68-9.26c-5.25,0.12-9.01,3.7-9.32,9.13
			C914.82,832.66,914.97,835.83,914.97,838.99z"/>
		<path class="st0" d="M1192.63,1179.12c-0.22,2.01-0.65,4.02-0.63,6.02c0.05,9.31-4.36,15.79-12.42,20.06
			c-5.15,2.73-10.22,5.61-15.46,8.17c-12.42,6.06-24.54,2.13-30.91-10.08c-10.62-20.38-21.19-40.79-31.65-61.26
			c-7.17-14.04-4.12-24.64,9.34-32.56c5.3-3.12,10.78-6.02,16.42-8.47c8.3-3.61,16.13-2.59,23.46,3.1c1.59,1.23,4.74,1.81,6.6,1.13
			c16.82-6.11,32.5-14.55,47.32-24.53c1.52-1.02,2.75-3.78,2.66-5.66c-0.45-9.41,3.02-16.58,11.2-21.24
			c5.79-3.29,11.67-6.44,17.66-9.34c11-5.33,22.83-1.84,28.86,8.76c5.35,9.4,10.26,19.06,15.25,28.66
			c6.31,12.11,12.63,24.22,18.73,36.44c5.89,11.82,1.75,24.02-9.89,30.07c-5.17,2.69-10.21,5.65-15.47,8.14
			c-8.85,4.2-17.37,3.88-25.27-2.54c-1.11-0.9-2.63-1.31-3.96-1.94c-0.32,0.35-0.65,0.7-0.97,1.06c0.87,1.68,1.65,3.42,2.62,5.04
			c23.3,38.85,46.41,77.82,70.04,116.47c10.61,17.36,6.39,36.61-4.94,46.53c-21.21,18.56-49.4,10.98-58.85-11.25
			c-10.49-24.67-21.6-49.07-32.42-73.6c-7.79-17.67-15.53-35.37-23.35-53.03c-0.69-1.56-1.75-2.96-2.64-4.43
			C1193.53,1178.94,1193.08,1179.03,1192.63,1179.12z M1285.83,1315.12c7.14-0.5,13.68-3.73,17.79-10.71
			c4.05-6.89,2.78-13.71-1.19-20.32c-22.64-37.66-45.27-75.33-67.84-113.03c-7.96-13.29-7.8-13.22-21.37-5.03
			c-3.79,2.29-4.45,4.37-2.63,8.44c12.22,27.34,24.18,54.81,36.28,82.21c6.99,15.83,14.07,31.62,21.15,47.41
			C1271.28,1311.38,1277.06,1314.9,1285.83,1315.12z M1184.54,1163.84c1.21-0.58,1.81-0.84,2.4-1.15
			c15.77-8.2,31.52-16.44,47.33-24.58c2.58-1.33,2.81-3.04,1.63-5.3c-6.25-11.94-12.54-23.86-18.77-35.81
			c-1.3-2.5-2.81-2.62-5.25-1.33c-15.41,8.17-30.85,16.28-46.38,24.21c-2.8,1.43-3.25,2.8-1.89,5.42
			c6.14,11.81,12.18,23.68,18.34,35.48C1182.55,1161.97,1183.7,1162.88,1184.54,1163.84z M1152.99,1200.58
			c6.73-3.49,12.81-6.55,18.79-9.78c3.9-2.11,4.75-5.15,2.58-9.2c-4.33-8.06-8.5-16.21-12.69-24.33
			c-6.26-12.12-12.46-24.27-18.73-36.39c-3.06-5.9-5.35-6.66-11.13-3.81c-4.03,1.99-8.06,3.97-12.04,6.06
			c-5.83,3.06-6.6,5.34-3.63,11.18c7.69,15.13,15.43,30.23,23.2,45.32c2.74,5.32,5.45,10.68,8.51,15.81
			C1149,1197.38,1151.11,1198.76,1152.99,1200.58z M1285.46,1129.54c-0.85-2.39-1.29-4.18-2.1-5.78
			c-6.34-12.45-12.75-24.88-19.16-37.3c-3.89-7.54-7.77-15.09-11.79-22.56c-3-5.57-5.49-6.35-10.83-3.72
			c-3.73,1.84-7.45,3.7-11.16,5.6c-6.99,3.59-7.76,5.7-4.27,12.56c6.63,13.05,13.34,26.07,20.05,39.08
			c3.66,7.1,7.41,14.15,11.11,21.22c1.77,3.38,4.4,5.26,8.14,3.51c5.57-2.6,11.04-5.45,16.39-8.49
			C1283.37,1132.79,1284.32,1130.89,1285.46,1129.54z"/>
		<path class="st0" d="M1152.47,818.05c25.82,0,51.65-0.01,77.48,0.01c1.99,0,4.51-0.52,5.86,0.47c2.47,1.8,5.13,4.24,6.11,6.99
			c1.2,3.36-0.81,6.58-4.3,8.02c-1.94,0.8-4.17,1.3-6.26,1.3c-52.48,0.07-104.97,0.07-157.45,0.02c-1.95,0-4-0.35-5.84-0.99
			c-4.09-1.44-5.42-4.69-4.88-8.77c0.53-3.95,2.88-6.3,6.83-6.85c1.8-0.25,3.66-0.19,5.49-0.19
			C1101.15,818.05,1126.81,818.05,1152.47,818.05z"/>
		<path class="st0" d="M1196,797.96c-25.82,0-51.65,0.01-77.47-0.01c-7.71,0-12.02-2.96-12.09-8.19c-0.07-5.19,4.41-8.61,11.96-8.62
			c52.15-0.06,104.29-0.06,156.44,0.07c2.66,0.01,6.11,0.72,7.78,2.46c1.86,1.94,3.23,5.68,2.7,8.19c-0.47,2.26-3.56,4.35-5.95,5.71
			c-1.54,0.88-3.9,0.38-5.9,0.38C1247.64,797.96,1221.82,797.96,1196,797.96z"/>
		<path class="st0" d="M1196.5,870.98c-26.33,0-52.67,0.06-79-0.09c-2.66-0.01-5.93-0.55-7.8-2.15c-1.8-1.54-3.56-5.35-2.83-7.14
			c1.08-2.63,4.2-4.63,6.81-6.34c1.19-0.77,3.25-0.24,4.91-0.24c51.67-0.01,103.33-0.01,155,0.01c2,0,4.05-0.11,5.97,0.31
			c4.02,0.88,6.4,3.32,6.38,7.71c-0.03,4.4-2.46,6.79-6.48,7.63c-1.93,0.4-3.98,0.29-5.98,0.29
			C1247.83,870.99,1222.17,870.98,1196.5,870.98z"/>
		<path class="st0" d="M1152.26,760.99c-26.5,0-52.99,0.01-79.49-0.01c-5.91-0.01-9-2.17-9.64-6.54c-0.68-4.66,1.77-8.29,6.4-9.12
			c1.95-0.35,3.98-0.28,5.98-0.28c51.33-0.01,102.65-0.01,153.98,0c1.83,0,3.69-0.07,5.49,0.19c4.62,0.66,7.16,3.74,6.98,8.21
			c-0.18,4.41-3,7.41-7.7,7.47c-11.33,0.16-22.66,0.08-33.99,0.08C1184.25,761,1168.26,760.99,1152.26,760.99z"/>
		<path class="st0" d="M1079.24,797.88c-2.82,0-5.65,0.14-8.45-0.03c-4.14-0.25-6.81-2.45-7.56-6.6c-0.8-4.43,1.22-8.4,5.24-8.87
			c7.28-0.85,14.8-0.85,22.07,0.01c4.02,0.47,6.03,4.44,5.23,8.87c-0.76,4.16-3.44,6.35-7.57,6.59
			C1085.22,798.01,1082.22,797.88,1079.24,797.88z"/>
		<path class="st0" d="M1269.66,818.22c2.82,0,5.66-0.24,8.44,0.05c5.15,0.54,7.76,3.36,7.81,7.97c0.05,4.08-3.16,8.07-7.64,8.39
			c-5.77,0.41-11.61,0.42-17.38,0.03c-4.71-0.32-8-4.44-7.8-8.74c0.21-4.55,2.89-7.23,8.12-7.7c2.79-0.25,5.63-0.04,8.45-0.04
			C1269.66,818.19,1269.66,818.2,1269.66,818.22z"/>
		<path class="st0" d="M1269.1,760.92c-2.99,0-5.99,0.2-8.96-0.05c-4.18-0.36-6.75-2.78-7-7.03c-0.26-4.33,1.68-7.97,6.09-8.35
			c6.75-0.59,13.61-0.57,20.37-0.05c4.41,0.34,6.36,3.86,6.3,8.22c-0.06,4.08-2.93,6.98-7.34,7.25c-3.14,0.19-6.31,0.04-9.46,0.04
			C1269.1,760.93,1269.1,760.93,1269.1,760.92z"/>
		<path class="st0" d="M1079.41,855.17c3.16,0,6.36-0.28,9.48,0.07c4.41,0.49,6.91,3.28,6.93,7.74c0.01,4.46-2.46,7.48-6.88,7.75
			c-6.3,0.38-12.67,0.42-18.96-0.03c-4.27-0.3-6.92-3.02-6.93-7.67c-0.01-4.65,2.61-7.17,6.89-7.74c3.11-0.42,6.31-0.08,9.48-0.08
			C1079.41,855.19,1079.41,855.18,1079.41,855.17z"/>
	</g>
</g>
</svg>
